<?xml version="1.0" encoding="UTF-8"?>
<svg version="1.1" xmlns="http://www.w3.org/2000/svg" width="200" height="200">
<path d="M0 0 C66 0 132 0 200 0 C200 66 200 132 200 200 C134 200 68 200 0 200 C0 134 0 68 0 0 Z " fill="#FEFEFD" transform="translate(0,0)"/>
<path d="M0 0 C0 0.99 0 1.98 0 3 C-0.66 3 -1.32 3 -2 3 C-1.99476318 4.2367749 -1.98952637 5.4735498 -1.98413086 6.74780273 C-1.96608439 11.31924725 -1.95456929 15.89068859 -1.94506836 20.4621582 C-1.94002733 22.44393441 -1.93319462 24.42570689 -1.92456055 26.4074707 C-1.91248485 29.24952109 -1.90676955 32.09152247 -1.90234375 34.93359375 C-1.89718246 35.82525742 -1.89202118 36.71692108 -1.88670349 37.63560486 C-1.88650823 39.75740601 -1.9378997 41.8791078 -2 44 C-3 45 -3 45 -5.94140625 45.09765625 C-7.13636719 45.08605469 -8.33132812 45.07445312 -9.5625 45.0625 C-11.35880859 45.04896484 -11.35880859 45.04896484 -13.19140625 45.03515625 C-14.11824219 45.02355469 -15.04507813 45.01195312 -16 45 C-16.495 41.535 -16.495 41.535 -17 38 C-17.33 40.31 -17.66 42.62 -18 45 C-19.98 45 -21.96 45 -24 45 C-24 46.32 -24 47.64 -24 49 C-23.01 49 -22.02 49 -21 49 C-21 55.93 -21 62.86 -21 70 C-21.99 70 -22.98 70 -24 70 C-24 68.35 -24 66.7 -24 65 C-24.66 65 -25.32 65 -26 65 C-26 66.65 -26 68.3 -26 70 C-28.97 70 -31.94 70 -35 70 C-35 67.36 -35 64.72 -35 62 C-35.99 62 -36.98 62 -38 62 C-38 64.64 -38 67.28 -38 70 C-40.64 70 -43.28 70 -46 70 C-46 66.7 -46 63.4 -46 60 C-46.99 60 -47.98 60 -49 60 C-49 63.3 -49 66.6 -49 70 C-50.97909398 70.02686553 -52.95828971 70.04633375 -54.9375 70.0625 C-56.03964844 70.07410156 -57.14179687 70.08570312 -58.27734375 70.09765625 C-61 70 -61 70 -62 69 C-62.09860131 67.59651265 -62.13078937 66.18819523 -62.1328125 64.78125 C-62.13410156 63.93175781 -62.13539062 63.08226562 -62.13671875 62.20703125 C-62.13285156 61.31371094 -62.12898438 60.42039063 -62.125 59.5 C-62.12886719 58.60667969 -62.13273437 57.71335938 -62.13671875 56.79296875 C-62.13478516 55.51873047 -62.13478516 55.51873047 -62.1328125 54.21875 C-62.13168457 53.43435547 -62.13055664 52.64996094 -62.12939453 51.84179688 C-62 50 -62 50 -61 49 C-58.98035801 48.92755947 -56.95832876 48.91622812 -54.9375 48.9375 C-53.28041016 48.95103516 -53.28041016 48.95103516 -51.58984375 48.96484375 C-50.73519531 48.97644531 -49.88054687 48.98804688 -49 49 C-49 51.97 -49 54.94 -49 58 C-48.01 58 -47.02 58 -46 58 C-46 55.03 -46 52.06 -46 49 C-43.36 48.34 -40.72 47.68 -38 47 C-39.32 46.67 -40.64 46.34 -42 46 C-44.35535899 42.82026536 -44.17494335 39.84875379 -44 36 C-45.65 36 -47.3 36 -49 36 C-49 37.98 -49 39.96 -49 42 C-47.68 42 -46.36 42 -45 42 C-45 42.99 -45 43.98 -45 45 C-48.375 45.125 -48.375 45.125 -52 45 C-52.66 44.34 -53.32 43.68 -54 43 C-54.66 43.66 -55.32 44.32 -56 45 C-58.5 45.25 -58.5 45.25 -61 45 C-63 43 -63 43 -63.1875 39.9375 C-63 37 -63 37 -62 36 C-62.66 35.67 -63.32 35.34 -64 35 C-64.4140625 32.71484375 -64.4140625 32.71484375 -64.625 29.9375 C-64.69976562 29.01839844 -64.77453125 28.09929687 -64.8515625 27.15234375 C-64.90054688 26.44207031 -64.94953125 25.73179688 -65 25 C-61.26137967 23.34637947 -57.98300973 21.99575243 -54 21 C-53.67 14.4 -53.34 7.8 -53 1 C-49.33333333 1 -45.66666667 1 -42 1 C-40.845 0.979375 -39.69 0.95875 -38.5 0.9375 C-35 1 -35 1 -33 2 C-33 6.95 -33 11.9 -33 17 C-32.01 17 -31.02 17 -30 17 C-30 11.72 -30 6.44 -30 1 C-29.01 1 -28.02 1 -27 1 C-26.80405324 4.14536768 -26.6196599 7.29130614 -26.4375 10.4375 C-26.35338867 11.78424805 -26.35338867 11.78424805 -26.26757812 13.15820312 C-26.21923828 14.01220703 -26.17089844 14.86621094 -26.12109375 15.74609375 C-26.0739624 16.53685303 -26.02683105 17.3276123 -25.97827148 18.14233398 C-26 20 -26 20 -27 21 C-28.51469448 21.23192865 -30.03754562 21.41215238 -31.5625 21.5625 C-32.80193359 21.68818359 -32.80193359 21.68818359 -34.06640625 21.81640625 C-34.70449219 21.87699219 -35.34257813 21.93757813 -36 22 C-35.67 24.64 -35.34 27.28 -35 30 C-35.99 30 -36.98 30 -38 30 C-38 29.01 -38 28.02 -38 27 C-38.99 27 -39.98 27 -41 27 C-41 31.95 -41 36.9 -41 42 C-40.01 42 -39.02 42 -38 42 C-38 41.34 -38 40.68 -38 40 C-37.01 40 -36.02 40 -35 40 C-35.33 41.32 -35.66 42.64 -36 44 C-34.515 43.505 -34.515 43.505 -33 43 C-33.01160156 41.71222656 -33.02320312 40.42445312 -33.03515625 39.09765625 C-33.0445327 37.41927228 -33.05363305 35.74088674 -33.0625 34.0625 C-33.07087891 33.21236328 -33.07925781 32.36222656 -33.08789062 31.48632812 C-33.09272461 30.27299805 -33.09272461 30.27299805 -33.09765625 29.03515625 C-33.10551147 27.91185913 -33.10551147 27.91185913 -33.11352539 26.76586914 C-33 25 -33 25 -32 24 C-29.81360547 23.92741054 -27.62499611 23.91626217 -25.4375 23.9375 C-23.64119141 23.95103516 -23.64119141 23.95103516 -21.80859375 23.96484375 C-20.88175781 23.97644531 -19.95492187 23.98804687 -19 24 C-19 23.34 -19 22.68 -19 22 C-20.98 21.67 -22.96 21.34 -25 21 C-25 14.4 -25 7.8 -25 1 C-16.63116351 0.09526092 -8.41471412 -0.11055829 0 0 Z " fill="#EAB7B9" transform="translate(132,57)"/>
<path d="M0 0 C27.72 0 55.44 0 84 0 C84 30.03 84 60.06 84 91 C76.74 91 69.48 91 62 91 C62 89.68 62 88.36 62 87 C68.27 87 74.54 87 81 87 C81 59.61 81 32.22 81 4 C55.26 4 29.52 4 3 4 C3 31.39 3 58.78 3 87 C14.55 87 26.1 87 38 87 C47 97 47 97 51 102 C50.505 103.485 50.505 103.485 50 105 C46 103 46 103 37 92 C18.685 91.505 18.685 91.505 0 91 C0 60.97 0 30.94 0 0 Z " fill="#E59A4D" transform="translate(58,47)"/>
<path d="M0 0 C3.66666667 0 7.33333333 0 11 0 C12.155 -0.020625 13.31 -0.04125 14.5 -0.0625 C18 0 18 0 20 1 C20 5.95 20 10.9 20 16 C20.99 16 21.98 16 23 16 C23 10.72 23 5.44 23 0 C23.99 0 24.98 0 26 0 C26.19594676 3.14536768 26.3803401 6.29130614 26.5625 9.4375 C26.64661133 10.78424805 26.64661133 10.78424805 26.73242188 12.15820312 C26.78076172 13.01220703 26.82910156 13.86621094 26.87890625 14.74609375 C26.9260376 15.53685303 26.97316895 16.3276123 27.02172852 17.14233398 C27 19 27 19 26 20 C24.48530552 20.23192865 22.96245438 20.41215238 21.4375 20.5625 C20.19806641 20.68818359 20.19806641 20.68818359 18.93359375 20.81640625 C18.29550781 20.87699219 17.65742187 20.93757813 17 21 C16.67 21.99 16.34 22.98 16 24 C14.35 24 12.7 24 11 24 C10.67 29.61 10.34 35.22 10 41 C9.67 41 9.34 41 9 41 C9 39.02 9 37.04 9 35 C7.35 35 5.7 35 4 35 C4 36.98 4 38.96 4 41 C5.32 41 6.64 41 8 41 C8 41.99 8 42.98 8 44 C4.625 44.125 4.625 44.125 1 44 C0.34 43.34 -0.32 42.68 -1 42 C-1.66 42.66 -2.32 43.32 -3 44 C-5.5 44.25 -5.5 44.25 -8 44 C-10 42 -10 42 -10.1875 38.9375 C-10 36 -10 36 -9 35 C-9.66 34.67 -10.32 34.34 -11 34 C-11.4140625 31.71484375 -11.4140625 31.71484375 -11.625 28.9375 C-11.69976562 28.01839844 -11.77453125 27.09929687 -11.8515625 26.15234375 C-11.90054688 25.44207031 -11.94953125 24.73179688 -12 24 C-8.26137967 22.34637947 -4.98300973 20.99575243 -1 20 C-0.67 13.4 -0.34 6.8 0 0 Z " fill="#FEEAEA" transform="translate(79,58)"/>
<path d="M0 0 C0 0.99 0 1.98 0 3 C-0.66 3 -1.32 3 -2 3 C-1.99214478 4.85516235 -1.99214478 4.85516235 -1.98413086 6.74780273 C-1.96608439 11.31924725 -1.95456929 15.89068859 -1.94506836 20.4621582 C-1.94002733 22.44393441 -1.93319462 24.42570689 -1.92456055 26.4074707 C-1.91248485 29.24952109 -1.90676955 32.09152247 -1.90234375 34.93359375 C-1.89718246 35.82525742 -1.89202118 36.71692108 -1.88670349 37.63560486 C-1.88650823 39.75740601 -1.9378997 41.8791078 -2 44 C-2.33 44.33 -2.66 44.66 -3 45 C-6.3 45 -9.6 45 -13 45 C-13 38.07 -13 31.14 -13 24 C-13.99 24 -14.98 24 -16 24 C-16 26.31 -16 28.62 -16 31 C-18.12508244 27.81237635 -18.5020163 25.73487777 -19 22 C-20.98 21.67 -22.96 21.34 -25 21 C-25 14.4 -25 7.8 -25 1 C-16.63116351 0.09526092 -8.41471412 -0.11055829 0 0 Z " fill="#FEE9E9" transform="translate(132,57)"/>
<path d="M0 0 C3.66666667 0 7.33333333 0 11 0 C12.155 -0.020625 13.31 -0.04125 14.5 -0.0625 C18 0 18 0 20 1 C20 5.95 20 10.9 20 16 C20.99 16 21.98 16 23 16 C23 10.72 23 5.44 23 0 C23.99 0 24.98 0 26 0 C26.19594676 3.14536768 26.3803401 6.29130614 26.5625 9.4375 C26.61857422 10.33533203 26.67464844 11.23316406 26.73242188 12.15820312 C26.78076172 13.01220703 26.82910156 13.86621094 26.87890625 14.74609375 C26.9260376 15.53685303 26.97316895 16.3276123 27.02172852 17.14233398 C27 19 27 19 26 20 C24.5112814 20.08669432 23.018555 20.10703494 21.52734375 20.09765625 C20.62822266 20.09443359 19.72910156 20.09121094 18.80273438 20.08789062 C17.85720703 20.07951172 16.91167969 20.07113281 15.9375 20.0625 C14.98810547 20.05798828 14.03871094 20.05347656 13.06054688 20.04882812 C10.70700469 20.03700128 8.35349468 20.01906521 6 20 C5.67 17.03 5.34 14.06 5 11 C4.34 11 3.68 11 3 11 C3 13.64 3 16.28 3 19 C2.01 19 1.02 19 0 19 C0 12.73 0 6.46 0 0 Z " fill="#DB8585" transform="translate(79,58)"/>
<path d="M0 0 C0.99 0 1.98 0 3 0 C2.67 28.05 2.34 56.1 2 85 C13.55 85 25.1 85 37 85 C46 95 46 95 50 100 C49.505 101.485 49.505 101.485 49 103 C44.96472554 101.4451236 42.92491445 98.82178919 40.25 95.5 C39.45078125 94.5203125 38.6515625 93.540625 37.828125 92.53125 C36 90 36 90 36 88 C24.12 88 12.24 88 0 88 C0 58.96 0 29.92 0 0 Z " fill="#EA9033" transform="translate(59,49)"/>
<path d="M0 0 C2.5 0.25 2.5 0.25 4.5 2.25 C4.625 4.875 4.625 4.875 4.5 7.25 C4.83 4.94 5.16 2.63 5.5 0.25 C8.14 0.25 10.78 0.25 13.5 0.25 C13.5 1.24 13.5 2.23 13.5 3.25 C12.18 3.25 10.86 3.25 9.5 3.25 C9.5 5.23 9.5 7.21 9.5 9.25 C10.49 9.25 11.48 9.25 12.5 9.25 C12.5 9.91 12.5 10.57 12.5 11.25 C11.51 11.25 10.52 11.25 9.5 11.25 C9.5 13.56 9.5 15.87 9.5 18.25 C10.82 18.25 12.14 18.25 13.5 18.25 C13.5 19.24 13.5 20.23 13.5 21.25 C10.87472811 21.30382106 8.25055287 21.34358313 5.625 21.375 C4.87863281 21.39175781 4.13226563 21.40851563 3.36328125 21.42578125 C1.40805539 21.4433959 -0.54742021 21.35320189 -2.5 21.25 C-5.12723824 18.62276176 -4.76115971 16.70788327 -4.7734375 13.12890625 C-4.76570313 12.34386719 -4.75796875 11.55882813 -4.75 10.75 C-4.75773437 9.96496094 -4.76546875 9.17992188 -4.7734375 8.37109375 C-4.74634845 0.47463484 -4.74634845 0.47463484 0 0 Z " fill="#FEE9E9" transform="translate(117.5,105.75)"/>
<path d="M0 0 C0.99 0 1.98 0 3 0 C3.74669078 29.67301507 4.13848682 59.3176584 4 89 C-3.26 89 -10.52 89 -18 89 C-18 87.68 -18 86.36 -18 85 C-11.73 85 -5.46 85 1 85 C0.67 56.95 0.34 28.9 0 0 Z " fill="#E69643" transform="translate(138,49)"/>
<path d="M0 0 C3.3 0 6.6 0 10 0 C9.67 6.27 9.34 12.54 9 19 C10.98 19 12.96 19 15 19 C13.68 19.33 12.36 19.66 11 20 C11 20.66 11 21.32 11 22 C10.34 22 9.68 22 9 22 C9 24.64 9 27.28 9 30 C6.87491756 26.81237635 6.4979837 24.73487777 6 21 C4.02 20.67 2.04 20.34 0 20 C0 13.4 0 6.8 0 0 Z " fill="#FEE2E2" transform="translate(107,58)"/>
<path d="M0 0 C1.23556641 0.01740234 1.23556641 0.01740234 2.49609375 0.03515625 C3.32238281 0.04417969 4.14867188 0.05320312 5 0.0625 C5.63808594 0.07410156 6.27617188 0.08570312 6.93359375 0.09765625 C6.96247521 3.41013812 6.98035174 6.72258792 6.99609375 10.03515625 C7.00447266 10.98068359 7.01285156 11.92621094 7.02148438 12.90039062 C7.02470703 13.79951172 7.02792969 14.69863281 7.03125 15.625 C7.03648682 16.45765381 7.04172363 17.29030762 7.04711914 18.14819336 C6.93359375 20.09765625 6.93359375 20.09765625 5.93359375 21.09765625 C4.12109375 21.23046875 4.12109375 21.23046875 1.93359375 21.22265625 C1.21171875 21.22523437 0.48984375 21.2278125 -0.25390625 21.23046875 C-2.06640625 21.09765625 -2.06640625 21.09765625 -3.06640625 20.09765625 C-3.16500756 18.6941689 -3.19719562 17.28585148 -3.19921875 15.87890625 C-3.20050781 15.02941406 -3.20179687 14.17992188 -3.203125 13.3046875 C-3.19925781 12.41136719 -3.19539063 11.51804687 -3.19140625 10.59765625 C-3.19527344 9.70433594 -3.19914062 8.81101562 -3.203125 7.890625 C-3.20183594 7.04113281 -3.20054688 6.19164063 -3.19921875 5.31640625 C-3.19809082 4.53201172 -3.19696289 3.74761719 -3.19580078 2.93945312 C-3.00953844 0.28820197 -2.65179495 0.12532112 0 0 Z " fill="#FCEDEB" transform="translate(73.06640625,105.90234375)"/>
<path d="M0 0 C0.33 0 0.66 0 1 0 C1 6.6 1 13.2 1 20 C3.97 19.67 6.94 19.34 10 19 C10 20.65 10 22.3 10 24 C7.69 24 5.38 24 3 24 C3 27.96 3 31.92 3 36 C2.67 36 2.34 36 2 36 C2 34.35 2 32.7 2 31 C1.01 30.67 0.02 30.34 -1 30 C-0.01 30 0.98 30 2 30 C1.34 28.35 0.68 26.7 0 25 C-1.66611905 24.957279 -3.33382885 24.95936168 -5 25 C-6.19341752 25.97332261 -6.19341752 25.97332261 -6.11352539 27.76586914 C-6.10828857 28.51473389 -6.10305176 29.26359863 -6.09765625 30.03515625 C-6.09443359 30.84404297 -6.09121094 31.65292969 -6.08789062 32.48632812 C-6.07951172 33.33646484 -6.07113281 34.18660156 -6.0625 35.0625 C-6.05798828 35.91650391 -6.05347656 36.77050781 -6.04882812 37.65039062 C-6.03700373 39.76695663 -6.01906769 41.88348685 -6 44 C-7.485 44.495 -7.485 44.495 -9 45 C-9 38.07 -9 31.14 -9 24 C-9.99 24 -10.98 24 -12 24 C-12 22.68 -12 21.36 -12 20 C-10.02 20 -8.04 20 -6 20 C-6 16.7 -6 13.4 -6 10 C-3.5705484 13.6441774 -3.83820425 15.71241272 -4 20 C-2.68 20 -1.36 20 0 20 C0 13.4 0 6.8 0 0 Z " fill="#FEF5F4" transform="translate(120,82)"/>
<path d="M0 0 C2.64 0 5.28 0 8 0 C9.55606751 1.55606751 9.12970769 3.05957371 9.1328125 5.21875 C9.13474609 6.49298828 9.13474609 6.49298828 9.13671875 7.79296875 C9.13285156 8.68628906 9.12898437 9.57960938 9.125 10.5 C9.12886719 11.39332031 9.13273438 12.28664063 9.13671875 13.20703125 C9.13542969 14.05652344 9.13414062 14.90601562 9.1328125 15.78125 C9.13168457 16.56564453 9.13055664 17.35003906 9.12939453 18.15820312 C9 20 9 20 8 21 C5.36 21 2.72 21 0 21 C0 14.07 0 7.14 0 0 Z " fill="#E08E91" transform="translate(121,81)"/>
<path d="M0 0 C2.9375 0.1875 2.9375 0.1875 3.9375 1.1875 C4.02419432 2.6762186 4.04453494 4.168945 4.03515625 5.66015625 C4.03193359 6.55927734 4.02871094 7.45839844 4.02539062 8.38476562 C4.01701172 9.33029297 4.00863281 10.27582031 4 11.25 C3.99548828 12.19939453 3.99097656 13.14878906 3.98632812 14.12695312 C3.9745011 16.48053065 3.95802025 18.83398477 3.9375 21.1875 C2.9475 21.1875 1.9575 21.1875 0.9375 21.1875 C0.9375 18.5475 0.9375 15.9075 0.9375 13.1875 C-0.0525 13.1875 -1.0425 13.1875 -2.0625 13.1875 C-2.0625 15.8275 -2.0625 18.4675 -2.0625 21.1875 C-3.0525 21.1875 -4.0425 21.1875 -5.0625 21.1875 C-5.12041844 18.06257749 -5.15606746 14.93779234 -5.1875 11.8125 C-5.20425781 10.92304687 -5.22101563 10.03359375 -5.23828125 9.1171875 C-5.24472656 8.26640625 -5.25117187 7.415625 -5.2578125 6.5390625 C-5.26828613 5.75354004 -5.27875977 4.96801758 -5.28955078 4.15869141 C-4.87654241 0.57306816 -3.39627768 0.20793537 0 0 Z " fill="#C95454" transform="translate(96.0625,105.8125)"/>
<path d="M0 0 C0.99 0 1.98 0 3 0 C3 2.97 3 5.94 3 9 C3.99 9 4.98 9 6 9 C6 6.03 6 3.06 6 0 C6.99 0 7.98 0 9 0 C9 6.93 9 13.86 9 21 C8.01 21 7.02 21 6 21 C6 17.7 6 14.4 6 11 C5.01 11 4.02 11 3 11 C3 14.3 3 17.6 3 21 C2.01 21 1.02 21 0 21 C0 14.07 0 7.14 0 0 Z " fill="#C55859" transform="translate(80,106)"/>
<path d="M0 0 C2.31 0 4.62 0 7 0 C8 1 8 1 8.11352539 2.76586914 C8.10828857 3.51473389 8.10305176 4.26359863 8.09765625 5.03515625 C8.09443359 5.84404297 8.09121094 6.65292969 8.08789062 7.48632812 C8.07951172 8.33646484 8.07113281 9.18660156 8.0625 10.0625 C8.05798828 10.91650391 8.05347656 11.77050781 8.04882812 12.65039062 C8.03700373 14.76695663 8.01906769 16.88348685 8 19 C7.34 19 6.68 19 6 19 C5.67 16.36 5.34 13.72 5 11 C4.34 11 3.68 11 3 11 C3 13.64 3 16.28 3 19 C2.01 19 1.02 19 0 19 C0 12.73 0 6.46 0 0 Z " fill="#CE6365" transform="translate(79,58)"/>
<path d="M0 0 C0.99 0 1.98 0 3 0 C3.33 1.32 3.66 2.64 4 4 C4.33 2.68 4.66 1.36 5 0 C5.99 0 6.98 0 8 0 C8 6.93 8 13.86 8 21 C7.01 21 6.02 21 5 21 C4.34 17.37 3.68 13.74 3 10 C2.67 13.3 2.34 16.6 2 20 C1.34 20 0.68 20 0 20 C0 13.4 0 6.8 0 0 Z " fill="#C75356" transform="translate(111,81)"/>
<path d="M0 0 C0.66 0 1.32 0 2 0 C2.66 1.32 3.32 2.64 4 4 C4.33 2.68 4.66 1.36 5 0 C5.99 0 6.98 0 8 0 C8 6.93 8 13.86 8 21 C7.01 21 6.02 21 5 21 C4.34 17.7 3.68 14.4 3 11 C2.67 13.97 2.34 16.94 2 20 C1.34 20 0.68 20 0 20 C0 13.4 0 6.8 0 0 Z " fill="#C76264" transform="translate(103,106)"/>
<path d="M0 0 C0.66 0 1.32 0 2 0 C2.33 6.27 2.66 12.54 3 19 C1.35 19.33 -0.3 19.66 -2 20 C-1.34 18.35 -0.68 16.7 0 15 C-0.99 15 -1.98 15 -3 15 C-3 15.66 -3 16.32 -3 17 C-3.99 17 -4.98 17 -6 17 C-6 12.05 -6 7.1 -6 2 C-5.01 2 -4.02 2 -3 2 C-3 2.99 -3 3.98 -3 5 C-2.01 5 -1.02 5 0 5 C0 3.35 0 1.7 0 0 Z " fill="#FEE8E7" transform="translate(97,82)"/>
<path d="M0 0 C2.31 0 4.62 0 7 0 C8 1 8 1 8.09765625 3.28515625 C8.08605469 4.20167969 8.07445313 5.11820313 8.0625 6.0625 C8.05347656 6.98160156 8.04445313 7.90070313 8.03515625 8.84765625 C8.02355469 9.55792969 8.01195313 10.26820312 8 11 C6.35 11.33 4.7 11.66 3 12 C3 14.31 3 16.62 3 19 C2.01 19 1.02 19 0 19 C0 12.73 0 6.46 0 0 Z " fill="#CC5F62" transform="translate(69,58)"/>
<path d="M0 0 C2.5 0.25 2.5 0.25 4.5 2.25 C4.5 3.57 4.5 4.89 4.5 6.25 C3.51 6.25 2.52 6.25 1.5 6.25 C1.5 5.26 1.5 4.27 1.5 3.25 C0.51 3.25 -0.48 3.25 -1.5 3.25 C-1.38658466 5.65877257 -1.38658466 5.65877257 -0.5 8.25 C0.7684375 8.8996875 0.7684375 8.8996875 2.0625 9.5625 C4.5 11.25 4.5 11.25 4.8984375 13.140625 C4.9375 15.3125 4.9375 15.3125 4.5 19.25 C2.5 21.25 2.5 21.25 -0.125 21.375 C-0.90875 21.33375 -1.6925 21.2925 -2.5 21.25 C-2.83 19.6 -3.16 17.95 -3.5 16.25 C-2.84 16.25 -2.18 16.25 -1.5 16.25 C-1.5 16.91 -1.5 17.57 -1.5 18.25 C-0.51 18.25 0.48 18.25 1.5 18.25 C1.5 16.27 1.5 14.29 1.5 12.25 C0.695625 11.940625 -0.10875 11.63125 -0.9375 11.3125 C-3.5 10.25 -3.5 10.25 -4.5 9.25 C-4.6875 5.8125 -4.6875 5.8125 -4.5 2.25 C-2.5 0.25 -2.5 0.25 0 0 Z " fill="#CA5C60" transform="translate(73.5,80.75)"/>
<path d="M0 0 C2.5 0.25 2.5 0.25 4.5 2.25 C4.5 3.57 4.5 4.89 4.5 6.25 C3.51 6.25 2.52 6.25 1.5 6.25 C1.5 5.26 1.5 4.27 1.5 3.25 C0.51 3.25 -0.48 3.25 -1.5 3.25 C-1.5 8.2 -1.5 13.15 -1.5 18.25 C-0.51 18.25 0.48 18.25 1.5 18.25 C1.5 17.59 1.5 16.93 1.5 16.25 C2.49 16.25 3.48 16.25 4.5 16.25 C3.625 20.125 3.625 20.125 2.5 21.25 C0.0625 21.4375 0.0625 21.4375 -2.5 21.25 C-5.12723824 18.62276176 -4.76115971 16.70788327 -4.7734375 13.12890625 C-4.76570313 12.34386719 -4.75796875 11.55882813 -4.75 10.75 C-4.75773437 9.96496094 -4.76546875 9.17992188 -4.7734375 8.37109375 C-4.74634845 0.47463484 -4.74634845 0.47463484 0 0 Z " fill="#CB5E61" transform="translate(117.5,105.75)"/>
<path d="M0 0 C0.66 0 1.32 0 2 0 C2 6.6 2 13.2 2 20 C4.31 20 6.62 20 9 20 C8.67 20.99 8.34 21.98 8 23 C2.33357449 24.22517308 -3.23708518 24.09228867 -9 24 C-9.33 23.01 -9.66 22.02 -10 21 C-7.59629915 18.59629915 -3.37855504 19.375395 0 19 C0 12.73 0 6.46 0 0 Z " fill="#FEF3F3" transform="translate(105,58)"/>
<path d="M0 0 C2.31 0 4.62 0 7 0 C7 0.99 7 1.98 7 3 C5.68 3 4.36 3 3 3 C3 4.98 3 6.96 3 9 C3.99 9 4.98 9 6 9 C6 9.66 6 10.32 6 11 C5.01 11 4.02 11 3 11 C3 13.31 3 15.62 3 18 C4.32 18 5.64 18 7 18 C7 18.99 7 19.98 7 21 C4.69 21 2.38 21 0 21 C0 14.07 0 7.14 0 0 Z " fill="#C7444B" transform="translate(124,106)"/>
<path d="M0 0 C2.31 0 4.62 0 7 0 C7 0.99 7 1.98 7 3 C5.68 3 4.36 3 3 3 C3 4.98 3 6.96 3 9 C3.99 9 4.98 9 6 9 C6 9.66 6 10.32 6 11 C5.01 11 4.02 11 3 11 C3 13.31 3 15.62 3 18 C4.32 18 5.64 18 7 18 C7 18.99 7 19.98 7 21 C4.69 21 2.38 21 0 21 C0 14.07 0 7.14 0 0 Z " fill="#C9595C" transform="translate(80,81)"/>
<path d="M0 0 C0.99 0 1.98 0 3 0 C3 28.05 3 56.1 3 85 C2.67 85 2.34 85 2 85 C1.98969254 83.97935959 1.97938507 82.95871918 1.96876526 81.90715027 C1.87109754 72.29838236 1.76836972 62.68968016 1.66066074 53.0810194 C1.60544714 48.14086839 1.55202957 43.20071145 1.50268555 38.26049805 C1.45501904 33.49479786 1.40267529 28.7291701 1.34705925 23.96355629 C1.32664608 22.14347443 1.30793128 20.32337273 1.29092598 18.50325584 C1.26685906 15.95807074 1.23680754 13.41302254 1.20532227 10.86791992 C1.1995668 10.11194519 1.19381134 9.35597046 1.18788147 8.5770874 C1.1438762 5.45685606 0.9941598 2.98247939 0 0 Z " fill="#EF8D2A" transform="translate(138,49)"/>
<path d="M0 0 C3 0.125 3 0.125 4 1.125 C4.04063832 2.79117115 4.042721 4.45888095 4 6.125 C3.01 6.125 2.02 6.125 1 6.125 C1 5.135 1 4.145 1 3.125 C0.01 3.125 -0.98 3.125 -2 3.125 C-2 8.075 -2 13.025 -2 18.125 C-1.01 18.125 -0.02 18.125 1 18.125 C1 17.465 1 16.805 1 16.125 C1.99 16.125 2.98 16.125 4 16.125 C3.125 20 3.125 20 2 21.125 C-0.5 21.25 -0.5 21.25 -3 21.125 C-4.55606751 19.56893249 -4.12970769 18.06542629 -4.1328125 15.90625 C-4.13410156 15.05675781 -4.13539062 14.20726563 -4.13671875 13.33203125 C-4.13285156 12.43871094 -4.12898438 11.54539062 -4.125 10.625 C-4.12886719 9.73167969 -4.13273437 8.83835937 -4.13671875 7.91796875 C-4.13542969 7.06847656 -4.13414063 6.21898438 -4.1328125 5.34375 C-4.13168457 4.55935547 -4.13055664 3.77496094 -4.12939453 2.96679688 C-3.90786203 -0.18648835 -3.21135895 0.13380662 0 0 Z " fill="#C74548" transform="translate(74,105.875)"/>
<path d="M0 0 C2.33944736 0.28730055 4.6739143 0.61936779 7 1 C7 2.65 7 4.3 7 6 C6.01 6 5.02 6 4 6 C4 5.01 4 4.02 4 3 C3.01 3 2.02 3 1 3 C1 7.95 1 12.9 1 18 C1.99 18 2.98 18 4 18 C4 17.34 4 16.68 4 16 C4.99 16 5.98 16 7 16 C6.125 19.875 6.125 19.875 5 21 C2.5 21.125 2.5 21.125 0 21 C-1.55606751 19.44393249 -1.12970769 17.94042629 -1.1328125 15.78125 C-1.13410156 14.93175781 -1.13539062 14.08226563 -1.13671875 13.20703125 C-1.13285156 12.31371094 -1.12898438 11.42039062 -1.125 10.5 C-1.12886719 9.60667969 -1.13273437 8.71335937 -1.13671875 7.79296875 C-1.13542969 6.94347656 -1.13414063 6.09398438 -1.1328125 5.21875 C-1.13168457 4.43435547 -1.13055664 3.64996094 -1.12939453 2.84179688 C-1 1 -1 1 0 0 Z " fill="#BA4B4E" transform="translate(90,81)"/>
<path d="M0 0 C0 6.6 0 13.2 0 20 C0.66 20 1.32 20 2 20 C2 16.04 2 12.08 2 8 C4.30143236 11.45214853 4.13833854 12.23479324 3.625 16.1875 C3.51414062 17.08855469 3.40328125 17.98960938 3.2890625 18.91796875 C3.14597656 19.94857422 3.14597656 19.94857422 3 21 C1.02 21 -0.96 21 -3 21 C-3.33 21.66 -3.66 22.32 -4 23 C-3.67 15.74 -3.34 8.48 -3 1 C-1 0 -1 0 0 0 Z " fill="#FDCAC9" transform="translate(111,81)"/>
<path d="M0 0 C1.65 0 3.3 0 5 0 C4.01 0.33 3.02 0.66 2 1 C2 6.28 2 11.56 2 17 C3.32 17 4.64 17 6 17 C6 12.71 6 8.42 6 4 C6.66 3.67 7.32 3.34 8 3 C8 8.28 8 13.56 8 19 C5.36 19 2.72 19 0 19 C0 12.73 0 6.46 0 0 Z " fill="#C8474C" transform="translate(122,82)"/>
<path d="M0 0 C2.31 0 4.62 0 7 0 C7 0.66 7 1.32 7 2 C5.68 2 4.36 2 3 2 C3 3.98 3 5.96 3 8 C3.99 8 4.98 8 6 8 C6 8.66 6 9.32 6 10 C5.01 10 4.02 10 3 10 C3 12.31 3 14.62 3 17 C4.32 17 5.64 17 7 17 C7 17.66 7 18.32 7 19 C4.69 19 2.38 19 0 19 C0 12.73 0 6.46 0 0 Z " fill="#D06166" transform="translate(107,58)"/>
<path d="M0 0 C0.94875 0.04125 1.8975 0.0825 2.875 0.125 C3.205 1.115 3.535 2.105 3.875 3.125 C3.215 3.125 2.555 3.125 1.875 3.125 C1.875 5.765 1.875 8.405 1.875 11.125 C0.555 11.125 -0.765 11.125 -2.125 11.125 C-2.125 8.815 -2.125 6.505 -2.125 4.125 C-2.785 4.125 -3.445 4.125 -4.125 4.125 C-4.125 9.405 -4.125 14.685 -4.125 20.125 C-3.465 20.455 -2.805 20.785 -2.125 21.125 C-3.115 21.125 -4.105 21.125 -5.125 21.125 C-5.18291844 18.00007749 -5.21856746 14.87529234 -5.25 11.75 C-5.26675781 10.86054687 -5.28351563 9.97109375 -5.30078125 9.0546875 C-5.30722656 8.20390625 -5.31367187 7.353125 -5.3203125 6.4765625 C-5.33078613 5.69104004 -5.34125977 4.90551758 -5.35205078 4.09619141 C-4.9332737 0.46048584 -3.4407455 0.13762982 0 0 Z " fill="#D47376" transform="translate(96.125,105.875)"/>
<path d="M0 0 C1.4540625 0.0309375 1.4540625 0.0309375 2.9375 0.0625 C2.9375 1.7125 2.9375 3.3625 2.9375 5.0625 C2.2775 5.0625 1.6175 5.0625 0.9375 5.0625 C0.9375 4.0725 0.9375 3.0825 0.9375 2.0625 C-0.0525 2.0625 -1.0425 2.0625 -2.0625 2.0625 C-2.0625 7.0125 -2.0625 11.9625 -2.0625 17.0625 C-1.0725 17.0625 -0.0825 17.0625 0.9375 17.0625 C0.9375 16.4025 0.9375 15.7425 0.9375 15.0625 C1.5975 15.0625 2.2575 15.0625 2.9375 15.0625 C2.9375 16.3825 2.9375 17.7025 2.9375 19.0625 C0.6275 19.0625 -1.6825 19.0625 -4.0625 19.0625 C-4.08933987 16.08327407 -4.10926037 13.10428705 -4.125 10.125 C-4.13337891 9.27486328 -4.14175781 8.42472656 -4.15039062 7.54882812 C-4.15361328 6.73994141 -4.15683594 5.93105469 -4.16015625 5.09765625 C-4.16539307 4.3487915 -4.17062988 3.59992676 -4.17602539 2.82836914 C-3.97442503 -0.30749202 -3.18111996 0.06492082 0 0 Z " fill="#C74548" transform="translate(120.0625,57.9375)"/>
<path d="M0 0 C0.33 0 0.66 0 1 0 C1 3.96 1 7.92 1 12 C0.01 12.495 0.01 12.495 -1 13 C-1 12.34 -1 11.68 -1 11 C-2.65 11.33 -4.3 11.66 -6 12 C-6 9.03 -6 6.06 -6 3 C-4.35 3 -2.7 3 -1 3 C-0.67 2.01 -0.34 1.02 0 0 Z " fill="#FDFBFA" transform="translate(125,61)"/>
<path d="M0 0 C2.31 0 4.62 0 7 0 C7 0.66 7 1.32 7 2 C6.34 2 5.68 2 5 2 C5 7.61 5 13.22 5 19 C4.01 19 3.02 19 2 19 C2 13.39 2 7.78 2 2 C1.34 2 0.68 2 0 2 C0 1.34 0 0.68 0 0 Z " fill="#C7595C" transform="translate(125,58)"/>
<path d="M0 0 C0.99 0 1.98 0 3 0 C3.02683987 2.97922593 3.04676037 5.95821295 3.0625 8.9375 C3.07087891 9.78763672 3.07925781 10.63777344 3.08789062 11.51367188 C3.09111328 12.32255859 3.09433594 13.13144531 3.09765625 13.96484375 C3.10289307 14.7137085 3.10812988 15.46257324 3.11352539 16.23413086 C3 18 3 18 2 19 C0.33382885 19.04063832 -1.33388095 19.042721 -3 19 C-3 18.34 -3 17.68 -3 17 C-2.01 17 -1.02 17 0 17 C0 11.39 0 5.78 0 0 Z " fill="#C96A6C" transform="translate(102,58)"/>
<path d="M0 0 C3.04964687 2.95723332 5.99754634 5.99958942 8.875 9.125 C9.49117187 9.78757813 10.10734375 10.45015625 10.7421875 11.1328125 C11.15726563 11.74898437 11.57234375 12.36515625 12 13 C11.67 13.99 11.34 14.98 11 16 C7.22388547 14.48273502 5.2305492 12.25848293 2.6875 9.125 C1.96949219 8.26132813 1.25148438 7.39765625 0.51171875 6.5078125 C-1 4 -1 4 -0.73046875 1.6796875 C-0.48941406 1.12539062 -0.24835938 0.57109375 0 0 Z " fill="#E59843" transform="translate(97,136)"/>
<path d="M0 0 C1.32 0.33 2.64 0.66 4 1 C4 5.62 4 10.24 4 15 C2.68 15 1.36 15 0 15 C0 10.05 0 5.1 0 0 Z " fill="#FBDDDD" transform="translate(92,60)"/>
<path d="M0 0 C0.99 0.33 1.98 0.66 3 1 C2.67 6.28 2.34 11.56 2 17 C1.67 17 1.34 17 1 17 C1 15.02 1 13.04 1 11 C-0.65 11 -2.3 11 -4 11 C-3.01 10.67 -2.02 10.34 -1 10 C-1 9.34 -1 8.68 -1 8 C-1.99 8 -2.98 8 -4 8 C-4 6.02 -4 4.04 -4 2 C-2.68 2 -1.36 2 0 2 C0 1.34 0 0.68 0 0 Z " fill="#FADAD8" transform="translate(114,58)"/>
<path d="M0 0 C0 5.94 0 11.88 0 18 C-0.66 18 -1.32 18 -2 18 C-2.33 15.36 -2.66 12.72 -3 10 C-3.66 10 -4.32 10 -5 10 C-5 7.03 -5 4.06 -5 1 C-1 0 -1 0 0 0 Z " fill="#BD5153" transform="translate(87,59)"/>
<path d="M0 0 C0.66 0 1.32 0 2 0 C2 5.61 2 11.22 2 17 C2.99 17.33 3.98 17.66 5 18 C3.33388095 18.042721 1.66617115 18.04063832 0 18 C-1.82116003 16.17883997 -1.1323508 13.69328236 -1.13671875 11.2734375 C-1.13285156 10.52320312 -1.12898438 9.77296875 -1.125 9 C-1.12886719 8.24976562 -1.13273437 7.49953125 -1.13671875 6.7265625 C-1.12661053 1.12661053 -1.12661053 1.12661053 0 0 Z " fill="#C65457" transform="translate(100,83)"/>
<path d="M0 0 C4.62 0 9.24 0 14 0 C14 0.33 14 0.66 14 1 C11.69 1 9.38 1 7 1 C6.67 2.98 6.34 4.96 6 7 C4.35 7 2.7 7 1 7 C1 9.97 1 12.94 1 16 C1.66 16 2.32 16 3 16 C3 16.66 3 17.32 3 18 C2.01 18 1.02 18 0 18 C0 13.05 0 8.1 0 3 C0.99 3 1.98 3 3 3 C3 3.99 3 4.98 3 6 C3.66 6 4.32 6 5 6 C5 4.35 5 2.7 5 1 C3.35 1 1.7 1 0 1 C0 0.67 0 0.34 0 0 Z " fill="#FCCBCC" transform="translate(118,57)"/>
<path d="M0 0 C1.32 0.33 2.64 0.66 4 1 C3.67 1.33 3.34 1.66 3 2 C2.91368126 3.34267413 2.89293527 4.68974322 2.90234375 6.03515625 C2.90556641 6.84404297 2.90878906 7.65292969 2.91210938 8.48632812 C2.92048828 9.33646484 2.92886719 10.18660156 2.9375 11.0625 C2.94201172 11.91650391 2.94652344 12.77050781 2.95117188 13.65039062 C2.96299627 15.76695663 2.98093231 17.88348685 3 20 C2.01 20.33 1.02 20.66 0 21 C0 14.07 0 7.14 0 0 Z " fill="#FFEBEA" transform="translate(111,106)"/>
<path d="M0 0 C1.99954746 -0.04254356 4.00041636 -0.04080783 6 0 C7 1 7 1 7.09765625 3.28515625 C7.08605469 4.20167969 7.07445313 5.11820313 7.0625 6.0625 C7.05347656 6.98160156 7.04445313 7.90070313 7.03515625 8.84765625 C7.02355469 9.55792969 7.01195313 10.26820312 7 11 C5 9 5 9 4.5 5.9375 C4.335 4.968125 4.17 3.99875 4 3 C3.34 2.67 2.68 2.34 2 2 C2 4.64 2 7.28 2 10 C1.34 10 0.68 10 0 10 C0 6.7 0 3.4 0 0 Z " fill="#C34C50" transform="translate(70,58)"/>
<path d="M0 0 C0.66 0 1.32 0 2 0 C3.41030314 6.73811499 2.66561666 13.19022959 2 20 C1.34 20 0.68 20 0 20 C0 13.4 0 6.8 0 0 Z " fill="#C3484A" transform="translate(103,106)"/>
<path d="M0 0 C1.65 0 3.3 0 5 0 C5.36116046 1.4774746 5.71375048 2.95704675 6.0625 4.4375 C6.25972656 5.26121094 6.45695312 6.08492188 6.66015625 6.93359375 C6.77230469 7.61550781 6.88445312 8.29742187 7 9 C6 10 6 10 4.15234375 10.09765625 C2.1015625 10.06510417 0.05078125 10.03255208 -2 10 C-2 9.67 -2 9.34 -2 9 C-0.02 9 1.96 9 4 9 C4 8.01 4 7.02 4 6 C2.68 6 1.36 6 0 6 C0 4.02 0 2.04 0 0 Z " fill="#FEF3F3" transform="translate(83,93)"/>
<path d="M0 0 C0.99 0 1.98 0 3 0 C3 4.95 3 9.9 3 15 C2.01 15 1.02 15 0 15 C0 10.05 0 5.1 0 0 Z " fill="#FFF5F3" transform="translate(102,84)"/>
<path d="M0 0 C0.99 0 1.98 0 3 0 C3 4.95 3 9.9 3 15 C2.01 15 1.02 15 0 15 C0 10.05 0 5.1 0 0 Z " fill="#FCDDDB" transform="translate(124,84)"/>
<path d="M0 0 C1.32 0.33 2.64 0.66 4 1 C3.67 1.33 3.34 1.66 3 2 C2.84417697 3.34015221 2.74955858 4.68758903 2.68359375 6.03515625 C2.64169922 6.84404297 2.59980469 7.65292969 2.55664062 8.48632812 C2.51732422 9.33646484 2.47800781 10.18660156 2.4375 11.0625 C2.39431641 11.91650391 2.35113281 12.77050781 2.30664062 13.65039062 C2.20023298 15.76672037 2.09958269 17.88333813 2 20 C1.34 20.33 0.68 20.66 0 21 C0 14.07 0 7.14 0 0 Z " fill="#FFEAE8" transform="translate(89,106)"/>
<path d="M0 0 C0.33 0 0.66 0 1 0 C1 6.6 1 13.2 1 20 C1.66 20 2.32 20 3 20 C3 16.04 3 12.08 3 8 C4.9451 10.91765 5.45276317 12.62537285 6 16 C5.34 16 4.68 16 4 16 C4 17.65 4 19.3 4 21 C2.68 21 1.36 21 0 21 C0 14.07 0 7.14 0 0 Z " fill="#EF9899" transform="translate(102,106)"/>
<path d="M0 0 C0.66 0 1.32 0 2 0 C2 2.31 2 4.62 2 7 C3.32 7 4.64 7 6 7 C6 7.66 6 8.32 6 9 C4.68 9 3.36 9 2 9 C2 11.31 2 13.62 2 16 C1.34 16 0.68 16 0 16 C0 10.72 0 5.44 0 0 Z " fill="#C74449" transform="translate(92,110)"/>
<path d="M0 0 C1.32 0.33 2.64 0.66 4 1 C4 6.61 4 12.22 4 18 C3.67 18 3.34 18 3 18 C2.67 16.02 2.34 14.04 2 12 C1.34 12.99 0.68 13.98 0 15 C0 10.05 0 5.1 0 0 Z " fill="#F0B4B4" transform="translate(86,58)"/>
<path d="M0 0 C2.31 0 4.62 0 7 0 C7 0.99 7 1.98 7 3 C5.68 3 4.36 3 3 3 C3 4.98 3 6.96 3 9 C2.67 8.34 2.34 7.68 2 7 C1.34 7 0.68 7 0 7 C0 4.69 0 2.38 0 0 Z " fill="#D16369" transform="translate(124,106)"/>
<path d="M0 0 C0.33 0 0.66 0 1 0 C1 6.27 1 12.54 1 19 C-2 13 -2 13 -3 10 C-2.67 9.01 -2.34 8.02 -2 7 C-1.34 7.33 -0.68 7.66 0 8 C0 5.36 0 2.72 0 0 Z " fill="#CD464B" transform="translate(109,107)"/>
<path d="M0 0 C1.65 0 3.3 0 5 0 C5.33 2.31 5.66 4.62 6 7 C3.03 6.505 3.03 6.505 0 6 C0 4.02 0 2.04 0 0 Z " fill="#FCF1F1" transform="translate(110,69)"/>
<path d="M0 0 C1.98 0 3.96 0 6 0 C6 2.31 6 4.62 6 7 C5.67 7 5.34 7 5 7 C5 5.35 5 3.7 5 2 C4.01 2 3.02 2 2 2 C2 4.31 2 6.62 2 9 C1.01 9.495 1.01 9.495 0 10 C0 6.7 0 3.4 0 0 Z " fill="#C64A4B" transform="translate(80,58)"/>
<path d="M0 0 C1.99954746 -0.04254356 4.00041636 -0.04080783 6 0 C7 1 7 1 7.0625 3.5625 C7.041875 4.366875 7.02125 5.17125 7 6 C6.01 6 5.02 6 4 6 C4 5.01 4 4.02 4 3 C2.35 3 0.7 3 -1 3 C-0.67 2.01 -0.34 1.02 0 0 Z " fill="#CD5C60" transform="translate(71,106)"/>
<path d="M0 0 C0.99 0 1.98 0 3 0 C2.125 3.875 2.125 3.875 1 5 C-0.66617115 5.04063832 -2.33388095 5.042721 -4 5 C-4.33 3.68 -4.66 2.36 -5 1 C-2.525 1.495 -2.525 1.495 0 2 C0 1.34 0 0.68 0 0 Z " fill="#C75C5F" transform="translate(94,97)"/>
<path d="M0 0 C2.31 0.33 4.62 0.66 7 1 C7 2.65 7 4.3 7 6 C6.01 6 5.02 6 4 6 C4 5.01 4 4.02 4 3 C2.68 3 1.36 3 0 3 C0 2.01 0 1.02 0 0 Z " fill="#C55C61" transform="translate(90,81)"/>
<path d="M0 0 C0.33 0 0.66 0 1 0 C1 5.94 1 11.88 1 18 C-0.65 18 -2.3 18 -4 18 C-4 17.34 -4 16.68 -4 16 C-3.01 15.67 -2.02 15.34 -1 15 C-0.67 10.05 -0.34 5.1 0 0 Z " fill="#C15153" transform="translate(103,59)"/>
<path d="M0 0 C0.33 0 0.66 0 1 0 C1 2.31 1 4.62 1 7 C2.32 7 3.64 7 5 7 C5 7.99 5 8.98 5 10 C2.69 10 0.38 10 -2 10 C-2 9.34 -2 8.68 -2 8 C-1.34 8 -0.68 8 0 8 C0 5.36 0 2.72 0 0 Z " fill="#D1787B" transform="translate(126,117)"/>
<path d="M0 0 C0.99 0 1.98 0 3 0 C3 2.97 3 5.94 3 9 C2.01 9 1.02 9 0 9 C0 6.03 0 3.06 0 0 Z " fill="#FFEDED" transform="translate(83,106)"/>
<path d="M0 0 C0.66 0 1.32 0 2 0 C2 2.31 2 4.62 2 7 C3.32 7 4.64 7 6 7 C6 7.66 6 8.32 6 9 C4.02 9 2.04 9 0 9 C0 6.03 0 3.06 0 0 Z " fill="#BF4A4E" transform="translate(108,68)"/>
<path d="M0 0 C0.99 0 1.98 0 3 0 C2.125 3.875 2.125 3.875 1 5 C-0.66617115 5.04063832 -2.33388095 5.042721 -4 5 C-4.33 4.34 -4.66 3.68 -5 3 C-3.35 2.67 -1.7 2.34 0 2 C0 1.34 0 0.68 0 0 Z " fill="#CC5E65" transform="translate(75,122)"/>
<path d="M0 0 C0.99 0 1.98 0 3 0 C3 2.64 3 5.28 3 8 C2.01 8 1.02 8 0 8 C0 5.36 0 2.72 0 0 Z " fill="#FFDEDE" transform="translate(94,109)"/>
<path d="M0 0 C0.33 0 0.66 0 1 0 C1 1.98 1 3.96 1 6 C0.01 6 -0.98 6 -2 6 C-2 5.34 -2 4.68 -2 4 C-2.66 4 -3.32 4 -4 4 C-4.33 4.99 -4.66 5.98 -5 7 C-5 5.02 -5 3.04 -5 1 C-4.01 1 -3.02 1 -2 1 C-2 1.66 -2 2.32 -2 3 C-1.34 3 -0.68 3 0 3 C0 2.01 0 1.02 0 0 Z " fill="#FADCDA" transform="translate(74,93)"/>
<path d="M0 0 C0.66 0 1.32 0 2 0 C2.33 2.64 2.66 5.28 3 8 C1.02 8.33 -0.96 8.66 -3 9 C-2.01 8.67 -1.02 8.34 0 8 C0 5.36 0 2.72 0 0 Z " fill="#FBD7D8" transform="translate(82,69)"/>
<path d="M0 0 C0.99 0 1.98 0 3 0 C3 2.64 3 5.28 3 8 C2.01 8 1.02 8 0 8 C0 5.36 0 2.72 0 0 Z " fill="#FEE4E4" transform="translate(94,119)"/>
<path d="M0 0 C1.0326802 2.78823655 1.04509293 3.8677274 0.0625 6.75 C-0.288125 7.4925 -0.63875 8.235 -1 9 C-1.66 9 -2.32 9 -3 9 C-3 6.69 -3 4.38 -3 2 C-2.01 2 -1.02 2 0 2 C0 1.34 0 0.68 0 0 Z " fill="#FEEAE7" transform="translate(130,115)"/>
<path d="M0 0 C0.99 0.33 1.98 0.66 3 1 C3 2.98 3 4.96 3 7 C2.01 7.33 1.02 7.66 0 8 C0 5.36 0 2.72 0 0 Z " fill="#FED8D5" transform="translate(72,60)"/>
<path d="M0 0 C0.99 0 1.98 0 3 0 C3 2.31 3 4.62 3 7 C2.01 7 1.02 7 0 7 C0 4.69 0 2.38 0 0 Z " fill="#FED9D8" transform="translate(82,60)"/>
<path d="M0 0 C1.9451 2.91765 2.45276317 4.62537285 3 8 C2.34 8 1.68 8 1 8 C1 9.65 1 11.3 1 13 C0.67 13 0.34 13 0 13 C0 8.71 0 4.42 0 0 Z " fill="#FEC2C5" transform="translate(105,114)"/>
<path d="M0 0 C0.33 0.66 0.66 1.32 1 2 C2.32 2 3.64 2 5 2 C5 1.34 5 0.68 5 0 C5.66 0 6.32 0 7 0 C7 1.32 7 2.64 7 4 C4.69 4 2.38 4 0 4 C0 2.68 0 1.36 0 0 Z " fill="#BC5354" transform="translate(116,73)"/>
<path d="M0 0 C1.98 0 3.96 0 6 0 C6 1.65 6 3.3 6 5 C5.34 5 4.68 5 4 5 C4 4.01 4 3.02 4 2 C2.68 2.33 1.36 2.66 0 3 C0 2.01 0 1.02 0 0 Z " fill="#BF4D50" transform="translate(117,58)"/>
</svg>
